/* XPM */
static char *sense_emu_gui[] = {
/* columns rows colors chars-per-pixel */
"32 32 79 1 ",
"  c #226934",
". c #296934",
"X c #226E3C",
"o c #2F6B4E",
"O c #36614B",
"+ c #247345",
"@ c #2F7547",
"# c #257649",
"$ c #29784D",
"% c #357345",
"& c #3E7142",
"* c #3C6953",
"= c #277F59",
"- c #297B5D",
"; c #4F5B56",
": c #5F5E5F",
"> c #605E5F",
", c #44754A",
"< c #406051",
"1 c #4A6551",
"2 c #447A53",
"3 c #5C7C57",
"4 c #5C7D58",
"5 c #6D7A55",
"6 c #23815E",
"7 c #28805C",
"8 c #268362",
"9 c #298564",
"0 c #2E8867",
"q c #2F8968",
"w c #338362",
"e c #3B8260",
"r c #348B6B",
"t c #388C6D",
"y c #3A8F71",
"u c #3D9072",
"i c #419376",
"p c #469579",
"a c #49977B",
"s c #4C997E",
"d c #549E83",
"f c #59A087",
"g c #5EA38A",
"h c #62A58D",
"j c #65A790",
"k c #67A891",
"l c #6BAA94",
"z c #72AE99",
"x c #76B19C",
"c c #79B39E",
"v c #7DB5A1",
"b c #80B7A3",
"n c #84B9A6",
"m c #8CBEAC",
"M c #8FC0AE",
"N c #90C0AF",
"B c #95C3B2",
"V c #9BC6B7",
"C c #9DC7B8",
"Z c #9EC8B9",
"A c #A4CBBD",
"S c #AACEC1",
"D c #ADD0C4",
"F c #B1D2C6",
"G c #B5D5C9",
"H c #B9D7CC",
"J c #BCD9CE",
"K c #BEDAD0",
"L c #C4DDD4",
"P c #C8DFD7",
"I c #C8E0D7",
"U c #CCE2DA",
"Y c #D1E5DE",
"T c #D5E7E1",
"R c #D7E8E2",
"E c #DBEAE5",
"W c #DFEDE8",
"Q c #E2EEEA",
"! c None",
/* pixels */
"!!!!!!!!!!!!!!!!!!!!!!!!!!!!!!!!",
"!!!!!!!!!!!!!!!!!!!!!!!!!!!!!!!!",
"!!!!!!!!!!!!!!!!!!!!!!!!!!!!!!!!",
"!!!!!!!!!!!!!!!!!!!!!!!!!!!!!!!!",
".,2oOOOOOOOOOOOOOOOOOOOOOOOOo2,.",
"%551::::>::>>>>>:>>>>>>>::::;55&",
"@44*;;;;;;;;;;;;;;;;;;;;;;;;*33%",
"#09--------------------------w9#",
"#98yCCCmCNAmANCNVBmq8qut980yy09#",
"#98uYUYLYJYJYLYLYPKrgvvvjdvcvzi#",
"#99yFFHALALAJAHDGFSqvptydVpirjd#",
"#88uLJUGUGUGUHIHPKGqhh9dmPlyqvy#",
" ++tFFLFLDLDLDLFKGSrqvzlTWFgnd9#",
"!! tHHLFLFIFIFLGKHFr9vxFltmmmd9#",
"!! tHHLHIGIFIFLGKJFqdmmFmmnBzm0#",
"!! rFFLALALDLDLDKFSyvPnqdHtrVSd#",
"!! tKJUJUHUHUJUJIKFfvvd6dGy6kgv=",
"!! rDSGAJAJAJAGSGFAdvFAhnVvzJvn$",
"!! tLLYLRKRKRKTLYPJyBBSYp6gYlVj+",
"!!XrSADAGCGCGCDAFSC0kk0Vd8hl8zy#",
"+77uUURLRLELWLRIYIKryngSKnKvjj9#",
"#98tAASCFCDVDCDASSVq9yvKluvFf99#",
"#99uUUEIQIQIQIWURYKr989dvvkr999#",
"#98rxxvxvzvzvzvxvvz099989989999#",
"#098888888888888888999999999999#",
"@45w899999989998899999999999035%",
"%55e989999999999999999999899w55%",
".,2=7=77====7===77========6==2,.",
"!!!!!!!!!!!!!!!!!!!!!!!!!!!!!!!!",
"!!!!!!!!!!!!!!!!!!!!!!!!!!!!!!!!",
"!!!!!!!!!!!!!!!!!!!!!!!!!!!!!!!!",
"!!!!!!!!!!!!!!!!!!!!!!!!!!!!!!!!"
};
