/* XPM */
static char *sense_emu_gui[] = {
/* columns rows colors chars-per-pixel */
"32 32 135 2 ",
"   c #010100",
".  c #0B0003",
"X  c #110005",
"o  c #180107",
"O  c #1C0109",
"+  c #151E0B",
"@  c #27010C",
"#  c #2C010D",
"$  c #31010F",
"%  c #350110",
"&  c #390112",
"*  c #3F141E",
"=  c #1C280F",
"-  c #1F2B11",
";  c #1D351C",
":  c #2A3616",
">  c #1C2621",
",  c #2D2425",
"<  c #430215",
"1  c #4B0217",
"2  c #4E0218",
"3  c #400818",
"4  c #520219",
"5  c #5B021C",
"6  c #62021E",
"7  c #6C0321",
"8  c #720323",
"9  c #7D0326",
"0  c #364A1D",
"q  c #384C1E",
"w  c #35441B",
"e  c #3A501F",
"r  c #1C462D",
"t  c #194A2D",
"y  c #1D4133",
"u  c #1E4F3D",
"i  c #1D533B",
"p  c #2F522B",
"a  c #3D5A27",
"s  c #204D33",
"d  c #205036",
"f  c #2A5331",
"g  c #296B36",
"h  c #26663C",
"j  c #25683D",
"k  c #2F6E3C",
"l  c #376E3C",
"z  c #445924",
"x  c #43612A",
"c  c #54742D",
"v  c #567730",
"b  c #5D7630",
"n  c #5B7D31",
"m  c #607431",
"M  c #1C5740",
"N  c #1E5E46",
"B  c #1E6B46",
"V  c #1F674D",
"C  c #247040",
"Z  c #297042",
"A  c #257649",
"S  c #26794E",
"D  c #377244",
"F  c #3C7345",
"G  c #33774B",
"H  c #3A764A",
"J  c #31784E",
"K  c #206A50",
"L  c #237557",
"P  c #267A50",
"I  c #247659",
"U  c #2D775D",
"Y  c #257B5D",
"T  c #2F785E",
"R  c #30795F",
"E  c #465C53",
"W  c #4B5B54",
"Q  c #505D57",
"!  c #565D5A",
"~  c #4D7655",
"^  c #527554",
"/  c #5E7951",
"(  c #567E5A",
")  c #637B55",
"_  c #6D7A54",
"`  c #800227",
"'  c #830328",
"]  c #8A032A",
"[  c #95042E",
"{  c #98042F",
"}  c #9D0430",
"|  c #A30432",
" . c #AB0434",
".. c #B20437",
"X. c #B70538",
"o. c #BC053A",
"O. c #C5053C",
"+. c #CB053E",
"@. c #628634",
"#. c #658A36",
"$. c #678E39",
"%. c #6D963A",
"&. c #6F983B",
"*. c #719B3C",
"=. c #75A03F",
"-. c #28805C",
";. c #278161",
":. c #298564",
">. c #2F8969",
",. c #328462",
"<. c #338B6B",
"1. c #45805D",
"2. c #7EAC43",
"3. c #86B848",
"4. c #8ABD4A",
"5. c #8EC34C",
"6. c #83B8A6",
"7. c #87BBA8",
"8. c #8CBEAC",
"9. c #95C3B3",
"0. c #9BC6B7",
"q. c #9FC8B9",
"w. c #A3CBBD",
"e. c #AACFC1",
"r. c #AED1C4",
"t. c #B1D3C7",
"y. c #B5D5C9",
"u. c #B8D7CC",
"i. c #BBD9CE",
"p. c #BFDAD0",
"a. c #C3DDD4",
"s. c #C8E0D7",
"d. c #CCE2DA",
"f. c #D0E4DD",
"g. c None",
/* pixels */
"g.g.g.g.g.g.g.g.g.g.g.g.g.g.g.g.g.g.g.g.g.g.g.g.g.g.g.g.g.g.g.g.",
"g.k Z j h h h h h h h h h h h h h h h h j j h j Z l g.g.g.g.g.g.",
"D ) ~ E Q Q Q Q Q Q Q ! Q ! Q Q Q Q Q Q Q Q W E ^ / l g.g.g.g.g.",
"H ) ^ W ! ! ! ! ! ! ! ! ! ! ! ! ! ! ! ! ! ! ! W ^ ) D g.g.g.g.g.",
"S ,.:.T R T T T R R R R R R R R T T U U U U U U -.,.A g.g.g.g.g.",
"S :.:.8.t.r.w.e.w.w.w.w.w.r.w.8.>.:.:.:.:.:.:.:.:.:.A g.g.g.g.g.",
"S :.:.9.a.i.t.u.i.y.i.y.y.a.y.w.<.:.:.:.:.:.:.:.:.:.A g.g.g.g.g.",
"S :.:.9.s.d.a.d.a.a.f.a.a.f.a.t.<.;.:.:.:.:.:.:.:.:.A g.g.g.g.g.",
"C S -.7.t.y.e.y.y.e.y.y.r.y.r.w.<.:.:.:.:.:.:.:.:.:.A g.g.g.g.g.",
"g.g.S 8.a.a.i.a.a.u.a.i.a.a.i.w.<.:.:.:.:.:.:.:.:.:.A g.g.g.g.g.",
"g.g.A 8.a.a.u.a.a.i.a.a.a.a.a.w.>.:.:.:.:.:.:.:.:.:.A g.g.g.g.g.",
"g.g.A 7.t.y.w.t.t.w.y.e.r.y.w.0.>.-.K i s i V Y :.I t + + g.g.g.",
"g.g.S 9.d.f.a.d.a.a.f.a.a.f.a.y.<.M a #.*.&.c f V p n &.*.@.0 g.",
"g.g.A 7.y.u.t.u.y.y.u.y.y.i.e.w.>.i @.5.2.2.5.$.; =.5.2.3.4.c g.",
"g.g.P 7.y.u.t.u.y.t.u.y.y.i.y.w.<.V x 4.4.&.#.@.- %.#.=.4.3.q g.",
"A -.:.9.d.d.a.d.f.a.f.a.a.f.a.y.<.Y i @.5.5.#.+   = =.5.4.c g.g.",
"S :.:.7.r.t.e.r.t.w.t.r.r.t.r.0.>.:.Y r z m : O % O w b a g.g.g.",
"S :.:.8.p.p.u.a.i.u.a.i.u.a.u.e.>.:.L , 9 8 3 ..o. .2 ' 6 O g.g.",
"S :.:.<.<.<.<.<.<.<.<.<.<.<.<.<.:.:.y ] | # % } .. .< 2 ..7 g.g.",
"G ( 1.:.:.:.:.:.:.:.:.:.:.:.:.:.:.Y - 6 % 7 ] 2 O 5 { 9 5 5 . g.",
"F _ ( :.:.:.:.>.:.:.:.:.:.:.:.:.:.M & O ' +.+.| @  .+.+.] $ < g.",
"g F J P P P P P P P P P P P P P V * ..2 ..+.+. .$  .+.+...8  .# ",
"g.g.g.g.g.g.g.g.g.g.g.g.g.g.g.g.g.7 ..& | +.O.7 . 6 O.+.{ 4 o.< ",
"g.g.g.g.g.g.g.g.g.g.g.g.g.g.g.g.g.< ' . $ 7 7 7 ] 8 4 5 @ # ] @ ",
"g.g.g.g.g.g.g.g.g.g.g.g.g.g.g.g.g.g.$ 9 <   5 +.+.+.7 . 7 } % g.",
"g.g.g.g.g.g.g.g.g.g.g.g.g.g.g.g.g.g.< O.o.2 8 +.O.+.' 7 O.O.< g.",
"g.g.g.g.g.g.g.g.g.g.g.g.g.g.g.g.g.g.@ | +.} & | O. .2  .+.| % g.",
"g.g.g.g.g.g.g.g.g.g.g.g.g.g.g.g.g.g.g.< { ' . $ 5 % O [ } 1 g.g.",
"g.g.g.g.g.g.g.g.g.g.g.g.g.g.g.g.g.g.g.g.X . 2  .X...2 X o g.g.g.",
"g.g.g.g.g.g.g.g.g.g.g.g.g.g.g.g.g.g.g.g.g.g.$ ' } 9 # g.g.g.g.g.",
"g.g.g.g.g.g.g.g.g.g.g.g.g.g.g.g.g.g.g.g.g.g.g.g.g.g.g.g.g.g.g.g.",
"g.g.g.g.g.g.g.g.g.g.g.g.g.g.g.g.g.g.g.g.g.g.g.g.g.g.g.g.g.g.g.g."
};
